Coordinates
version=1
nRows=13
nColumns=34
inDegrees=yes

Units are S.I. units (second, meters, Newtons, ...)
If the header above contains a line with 'inDegrees', this indicates whether rotational values are in degrees (yes) or radians (no).

endheader
time	pelvis_tilt	pelvis_list	pelvis_rotation	pelvis_tx	pelvis_ty	pelvis_tz	hip_flexion_r	hip_adduction_r	hip_rotation_r	knee_angle_r	ankle_angle_r	subtalar_angle_r	mtp_angle_r	hip_flexion_l	hip_adduction_l	hip_rotation_l	knee_angle_l	ankle_angle_l	subtalar_angle_l	mtp_angle_l	lumbar_extension	lumbar_bending	lumbar_rotation	arm_flex_r	arm_add_r	arm_rot_r	elbow_flex_r	pro_sup_r	arm_flex_l	arm_add_l	arm_rot_l	elbow_flex_l	pro_sup_l
      5.28333330	    -11.50737764	      1.31326079	     -1.77246752	      1.13250127	      1.13533535	     -0.01529642	     11.92391138	     -6.73227860	    -19.95533075	      4.98521775	      2.85484305	    -15.23944771	      0.00000000	     13.19103276	     -5.23899228	    -21.87739146	      5.34840219	     -0.40193262	    -13.48395024	      0.00000000	     -2.66852046	     -1.39936420	     -2.63719320	    -10.48594891	    -13.44022073	      7.43576049	     25.89841098	     72.68410467	   -188.92514284	   -168.70940737	   -168.01951414	     30.94300263	     62.14903324
      5.30000000	    -10.65148989	      0.96491916	     -1.18161432	      1.13112021	      1.13705527	     -0.01675617	     10.24790966	     -6.19906918	    -19.44860908	      3.90396358	      2.81397994	    -15.65270691	      0.00000000	     11.91944325	     -5.34451780	    -21.56705679	      4.63467094	     -0.09864242	    -12.63588765	      0.00000000	     -2.83136395	     -1.22504916	     -2.73225037	    -10.62786550	    -12.22870963	      6.67949819	     23.71279979	     72.16108003	   -188.86104496	   -169.25147355	   -169.65084605	     30.47065933	     61.86311116
      5.31666670	     -9.98113316	      0.84651623	     -0.58944673	      1.13096722	      1.13467749	     -0.01664715	      8.73513686	     -5.90288585	    -19.31958322	      2.69537848	      2.49478478	    -16.04123389	      0.00000000	     10.90988436	     -5.28686615	    -21.33495374	      3.97301561	     -0.16424336	    -12.04261720	      0.00000000	     -2.74469716	     -1.33187978	     -2.98837604	    -10.66759076	    -11.06697479	      6.03387692	     21.54473998	     71.69413401	   -188.93714425	   -169.67612381	   -171.42764023	     30.20002259	     61.75586314
      5.33333330	     -9.41000941	      0.66841472	     -0.03807343	      1.12958047	      1.13891839	     -0.01817498	      7.59716444	     -5.60811045	    -19.18130526	      1.82698483	      2.07559089	    -16.53817842	      0.00000000	     10.21066772	     -5.32607218	    -21.10121633	      3.51072127	     -0.28671461	    -11.67131778	      0.00000000	     -2.87952175	     -1.36079541	     -2.91875375	    -10.56802323	    -10.04613351	      5.85439541	     19.60325211	     71.49341016	   -188.56580127	   -169.93654495	   -172.73664864	     29.49763596	     61.78340915
      5.35000000	     -8.92482335	      0.55331609	      0.48171966	      1.13009569	      1.13920321	     -0.01831274	      6.65503711	     -5.41859688	    -19.13144701	      1.17185184	      1.38081602	    -17.34020521	      0.00000000	      9.60266167	     -5.30632194	    -20.77780106	      3.05205105	     -0.39116749	    -11.24855268	      0.00000000	     -2.99199155	     -1.46005619	     -3.00875690	    -10.18642768	     -9.18825363	      5.74514188	     18.14867409	     71.38396251	   -188.23742665	   -170.13509905	   -173.86648563	     28.86345574	     61.92181468
      5.36666670	     -8.38245925	      0.46571875	      1.05418452	      1.13664421	      1.14126922	     -0.01643076	      5.53296117	     -5.22256634	    -18.89500050	      0.54906391	      0.90618151	    -18.04083775	      0.00000000	      8.85653151	     -5.31725509	    -20.55345859	      2.61794636	     -0.62010819	    -10.74590912	      0.00000000	     -3.13362308	     -1.60219672	     -3.32319798	     -9.96707885	     -8.21740778	      5.68830286	     17.06933352	     71.35026011	   -188.04827957	   -170.20836576	   -174.92555969	     28.51160781	     62.20044484
      5.38333330	     -7.78748603	      0.43666334	      1.39625254	      1.15085220	      1.13702059	     -0.02418348	      4.24085170	     -5.21944280	    -18.70745856	      0.25738835	      0.56881248	    -18.79357736	      0.00000000	      7.79933584	     -5.22101747	    -20.59094513	      2.23164948	     -0.29598432	     -9.97884779	      0.00000000	     -2.98972199	     -1.60092144	     -3.52025294	    -10.14353082	     -7.68688872	      5.48345860	     16.76106159	     71.39175710	   -188.54215898	   -170.72340688	   -176.38693749	     28.29233939	     62.83376958
      5.40000000	     -7.62598493	      0.40024225	      1.52278524	      1.14994807	      1.14132447	     -0.02487563	      3.70060033	     -5.24778854	    -18.82521339	      0.17992391	      0.58778399	    -18.93695333	      0.00000000	      7.25058017	     -5.13750927	    -20.55924470	      1.87574365	     -0.25167376	     -9.95879312	      0.00000000	     -2.32767442	     -1.57333541	     -3.45744702	    -10.32158497	     -7.35843412	      5.49667080	     16.77098471	     71.40472922	   -188.76611564	   -171.07246525	   -176.42872448	     28.28415202	     62.89077598
      5.41666670	     -6.82451873	      0.57071846	      1.43217475	      1.15708227	      1.14492089	     -0.02858115	      2.41857985	     -5.52455624	    -18.56371490	      0.00000000	      0.34607980	    -19.27191903	      0.00000000	      5.81245156	     -4.77956621	    -20.58303815	      1.28595698	     -0.26587773	     -9.74116185	      0.00000000	     -2.42887475	     -1.58864257	     -3.32631550	    -10.28696119	     -7.17931682	      4.99191806	     16.52062895	     71.43753872	   -188.62643595	   -171.56160796	   -177.53506448	     27.63292401	     63.36012352
      5.43333330	     -6.62773997	      0.60232723	      1.47154964	      1.16303731	      1.13967547	     -0.03303706	      1.86611555	     -5.69890293	    -18.52365671	      0.00000000	      0.38292016	    -19.39194055	      0.00000000	      5.07383968	     -4.50792888	    -20.38334154	      0.81878358	      0.04807730	     -9.72439089	      0.00000000	     -1.75146267	     -1.34215193	     -3.33214758	    -10.58860564	     -7.23033686	      4.86768974	     16.38582492	     71.43801427	   -188.95497293	   -171.95282972	   -177.60742629	     27.51943542	     63.45253537
      5.45000000	     -6.28020754	      0.65002041	      1.52344743	      1.17043307	      1.14293249	     -0.03663370	      1.11946728	     -5.91073580	    -18.38680360	      0.00000000	      0.32929491	    -19.48792484	      0.00000000	      3.97828304	     -4.15563069	    -20.26625380	      0.00000000	      0.09441448	     -9.48989303	      0.00000000	     -1.14114647	     -1.19598093	     -3.32623690	    -10.81806931	     -7.25400191	      4.48139932	     16.19206572	     71.42620698	   -189.30403362	   -172.43735209	   -177.90200853	     27.07663426	     63.64031096
      5.46666670	     -6.10421249	      0.68982762	      1.38321590	      1.16221753	      1.14828305	     -0.03327338	      0.82120666	     -6.10149821	    -18.37190144	      0.00000000	      0.25633883	    -19.52814292	      0.00000000	      3.61720611	     -3.98338662	    -20.18709294	      0.00000000	      0.64932932	     -9.60377537	      0.00000000	     -0.87491062	     -1.02006773	     -3.22864958	    -10.70891976	     -7.24142019	      4.28955089	     16.13351444	     71.42758587	   -189.41278162	   -172.71471211	   -178.03785153	     26.88732415	     63.73445372
      5.48333330	     -5.51890842	      0.70297491	      1.38037668	      1.16906158	      1.14509461	     -0.03695234	      0.05603640	     -6.21812476	    -18.21188949	      0.00000000	     -0.05044936	    -20.14585176	      0.00000000	      2.79316156	     -3.85383676	    -20.39969128	      0.00000000	      1.32176508	     -8.77150893	      0.00000000	     -1.13117615	     -0.86366946	     -3.26062987	    -10.30364922	     -7.01839685	      2.75912099	     15.38678591	     71.45528197	   -188.95880374	   -173.18854093	   -179.21800704	     25.78489293	     64.46653765
